<?xml version="1.0"?>
<svg xmlns="http://www.w3.org/2000/svg" width="367" height="428">
<rect width="367" height="428" fill="#fff"/>
<path d="m83.128 428.04h-83.128v-428.04h367.42v428.04h-93.691c1.439-6.94 2.979-13.86 4.291-20.823 1.835-9.735 3.555-19.493 5.218-29.259 1.033-6.066 1.846-12.168 2.806-18.247.303-1.921 1.598-2.654 3.329-1.726 1.094.586 1.94 1.649 2.865 2.531 3.334 3.177 6.181 7.136 11.556 6.955.661-.022 1.328.34 2.002.478 5.671 1.159 11.346 2.304 17.018 3.46 1.495.305 3.042.477 4.465.99 1.907.688 3.44.207 4.885-.99 4.941-4.096 9.884-8.188 14.806-12.306 1.39-1.163 2.38-2.489 2.139-4.53-1.084-9.174-2.095-18.358-3.116-27.539-.509-4.572-.334-9.181-2.94-13.424-2.295-3.736-3.744-7.981-5.729-11.92-4.807-9.537-9.72-19.02-14.568-28.537-4.364-8.568-8.73-17.136-13.033-25.735-3.063-6.122-6.037-12.288-9.019-18.45-1.03-2.128-1.802-4.395-2.975-6.435-3.28-5.707-8.699-9.278-14.065-12.518-5.323-3.214-11.305-5.341-17.005-7.928-11.047-5.014-22.097-10.023-33.157-15.007-.7-.316-1.501-.409-2.859-.763.479 1.464.644 2.428 1.086 3.241 2.282 4.197 4.494 8.442 6.991 12.509 5.191 8.455 10.554 16.804 15.831 25.207 1.417 2.256 2.846 4.51 4.149 6.832 2.311 4.116 4.459 8.324 6.809 12.417 1.937 3.375 4.137 6.599 6.094 9.964 2.681 4.611 5.164 9.337 7.878 13.928 2.515 4.254 5.211 8.401 7.855 12.579.774 1.224 1.671 2.37 2.461 3.584 1.498 2.303 2.93 4.651 4.447 6.942 1.208 1.824 2.243 3.877 3.827 5.306 1.655 1.494 2.504 2.976 2.249 5.152-.212 1.809.714 2.711 2.457 2.877.684.065 1.372.101 2.057.16 4.727.412 8.735 4.187 9.497 8.838.258 1.576.543 3.191 1.133 4.662 1.136 2.834 1.55 5.806.314 8.492-1.9 4.131-4.252 8.068-6.624 11.958-.495.811-1.965 1.567-2.9 1.474-3.754-.371-6.948 1.228-9.955 2.876-3.987 2.184-7.38 1.79-10.806-.88-3.608-2.812-7.094-5.826-10.934-8.284-3.17-2.029-6.629-3.933-10.227-4.885-4.948-1.31-9.486-3.144-13.555-6.207-2.387-1.797-4.968-1.872-7.422-.259-.639.42-1.262.87-1.927 1.246-8.982 5.075-17.975 10.131-26.955 15.209-5.111 2.89-10.193 5.833-15.312 8.708-3.325 1.868-6.726 3.603-10.034 5.5-2.565 1.471-4.935 3.328-7.603 4.552-1.157.531-2.866.006-4.285-.25-.609-.11-1.086-.819-1.681-1.154-6.642-3.734-13.309-7.424-19.944-11.173-8.492-4.798-16.978-9.605-25.431-14.472-6.024-3.468-11.96-7.09-18.011-10.508-.803-.454-2.228-.472-3.069-.072-2.541 1.209-5.001 2.623-7.371 4.147-2.722 1.751-5.561 3.25-7.11 6.53-1.38 2.923-3.937 5.155-7.163 6.07-4.621 1.31-9.341 2.27-13.977 3.528-2.563.696-5.198 1.405-7.521 2.637-2.683 1.423-4.884 1.202-7.557-.064-3.478-1.646-7.26-2.638-10.861-4.04-1.22-.475-2.692-1.074-3.35-2.076-2.13-3.241-4.039-6.64-5.834-10.082-1.601-3.071-1.83-6.247-.031-9.431.512-.907.501-2.098.956-3.051 1.143-2.401 2.224-4.867 3.685-7.072 1.743-2.63 4.78-2.752 7.586-3.122 1.437-.189 2.821-.427 2.909-2.26.127-2.654 1.591-4.511 3.411-6.256 1.486-1.426 2.96-2.912 4.17-4.568 4.86-6.654 9.653-13.358 14.389-20.101 2.015-2.869 3.744-5.939 5.753-8.812 4.413-6.313 8.94-12.545 13.385-18.836 4.672-6.612 9.294-13.26 13.954-19.88 1.138-1.617 2.477-3.108 3.484-4.8 2.184-3.669 3.906-7.65 6.379-11.101 3.407-4.754 7.461-9.04 10.996-13.71 2.564-3.387 4.756-7.058 7.051-10.643.277-.433.162-1.116.229-1.683-.632.035-1.345-.106-1.879.14-1.1.509-2.05 1.351-3.159 1.833-3.917 1.703-7.894 3.27-11.815 4.966-8.617 3.726-17.224 7.475-25.815 11.26-5.087 2.241-10.176 4.484-15.184 6.893-2.258 1.086-4.306 2.604-6.472 3.885-6.67 3.946-11.079 9.606-13.193 17.087-.554 1.959-1.303 3.88-2.14 5.738-1.627 3.616-3.408 7.162-5.075 10.761-3.687 7.963-7.288 15.966-11.026 23.904-3.802 8.076-7.851 16.037-11.564 24.152-3.871 8.462-7.393 17.082-11.209 25.569-3.257 7.244-5.428 14.636-3.607 22.629 2.06 9.039 2.23 18.403 5.134 27.325 1.582 4.861 5.89 8.507 10.902 7.825 5.814-.791 11.639-1.521 17.426-2.48 1.42-.235 2.96-.99 4.017-1.968 4.745-4.39 9.329-8.953 13.991-13.432.543-.522 1.165-1.008 1.835-1.343 1.29-.646 2.229-.259 2.604 1.19.587 2.271 1.298 4.521 1.703 6.825 1.68 9.556 3.369 19.113 4.856 28.7 1.656 10.675 3.564 21.291 6.274 31.754.034.33-.138.73-.189 1.11zm99.742-214.16c11.245 0 22.491-.004 33.736.002 6.728.004 13.456.053 20.183-.003.811-.007 1.618-.547 2.427-.84-.32-.734-.55-1.525-.977-2.19-.99-1.54-2.188-2.955-3.104-4.534-4.856-8.373-9.697-16.755-14.417-25.205-.693-1.24-.813-2.846-1.012-4.308-.565-4.146-.861-8.26-4.582-11.259-1.34-1.08-2.186-3.151-2.593-4.923-.575-2.507-.597-5.152-.741-7.744-.259-4.661-.509-9.275 2.157-13.551 3.636-5.832 5.576-12.293 6.577-19.083.171-1.164 1.24-2.186 1.853-3.296.827-1.498 2.051-2.938 2.341-4.541.961-5.326 1.568-10.715 2.337-16.076.26-1.81-.012-3.323-1.782-4.307-1.582-.88-2.032-2.333-1.961-4.087.361-8.854.722-17.709.992-26.566.16-5.244-.451-10.455-2.492-15.29-1.155-2.737-2.731-5.583-4.874-7.559-4.465-4.119-9.457-7.663-14.177-11.511-1.175-.958-2.23-2.102-3.177-3.289-1.09-1.366-.985-2.843.143-4.199.93-1.117 1.929-2.18 2.803-3.338.328-.435.699-1.296.504-1.565-.332-.455-1.128-.877-1.676-.819-3.111.332-6.263.573-9.295 1.292-5.113 1.212-10.149 2.751-15.214 4.166-12.195 3.406-23.165 9.07-32.401 17.826-4.135 3.92-7.372 8.55-7.838 14.358-.512 6.386-.547 12.82-.549 19.233-.001 5.348.369 10.696.526 16.045.059 2.008.099 4.157-2.013 5.249-1.857.96-2.123 2.339-1.859 4.191.7 4.916 1.213 9.859 1.992 14.761.252 1.584 1.017 3.11 1.694 4.596 1.028 2.259 2.312 4.407 3.242 6.702.683 1.688.812 3.597 1.469 5.299 1.701 4.401 3.203 8.939 5.47 13.044 1.694 3.069 2.768 6.057 2.72 9.501-.048 3.433-.096 6.865-.144 10.298-.032 2.276-.602 4.295-2.911 5.267-2.119.892-2.754 2.494-3.008 4.681-.622 5.361-1.501 10.692-2.313 16.029-.077.506-.37.996-.63 1.455-2.619 4.634-5.251 9.26-7.88 13.889-1.614 2.843-3.274 5.661-4.813 8.544-.458.858-.974 2.022-.721 2.807.172.533 1.634.901 2.524.911 4.663.054 9.328-.056 13.992-.061 13.16-.05 26.32-.04 39.47-.03zm57.04 85.04c.147-.06.293-.121.44-.181.073-1.602-.081-3.261.297-4.788.255-1.028 1.07-2.299 1.973-2.702 1.675-.747 2.307-1.913 2.931-3.502 1.221-3.106 2.645-6.153 4.274-9.063.48-.858 1.902-1.568 2.944-1.644 1.58-.115 2.46-.697 3.3-1.985.758-1.163 1.822-2.706 2.972-2.925 3.484-.663 7.077-.741 10.622-1.102.846-.086 1.927-.149 2.414-.674.331-.356.011-1.608-.355-2.273-2.135-3.872-4.333-7.71-6.603-11.504-.433-.724-1.247-1.606-1.947-1.663-.565-.046-1.262 1.005-1.825 1.636-.401.449-.633 1.048-1.019 1.514-4.914 5.935-9.88 11.828-14.757 17.792-4.582 5.603-8.994 11.346-13.628 16.904-5.713 6.853-11.624 13.54-17.364 20.371-4.813 5.728-9.46 11.595-14.259 17.334-4.654 5.566-9.364 11.088-14.142 16.548-2.038 2.329-4.568 2.029-6.345-.467-.838-1.178-1.747-2.311-2.692-3.406-4.592-5.322-9.274-10.567-13.798-15.945-7.265-8.635-14.419-17.363-21.646-26.029-2.445-2.932-5.018-5.758-7.449-8.701-4.664-5.647-9.235-11.371-13.906-17.012-5.208-6.29-10.525-12.49-15.706-18.801-1.764-2.148-2.914-2.213-4.668-.048-3.174 3.916-6.467 7.735-9.624 11.664-.666.829-.962 1.957-1.429 2.947.998.264 2.003.506 2.994.796 2 .586 4.462.671 5.873 1.928 1.871 1.668 3.262 3.704 6.017 4.095.602.086 1.285.909 1.59 1.554 1.424 3.007 2.661 6.104 4.111 9.098.524 1.081 1.43 1.985 2.209 2.93.692.84 1.929 1.54 2.094 2.453.651 3.595 1.35 7.27-1.263 10.548-.957 1.2-.667 2.43.103 3.813.677 1.215.705 2.781 1.093 4.172.29 1.041.386 2.467 1.104 2.998 2.567 1.901 5.335 3.54 8.077 5.196 7.438 4.495 14.899 8.953 22.357 13.415 3.078 1.841 6.171 3.658 9.261 5.481 6.246 3.685 12.652 7.13 18.674 11.149 2.934 1.958 5.532 2.35 8.537.983 5.259-2.392 10.553-4.727 15.697-7.352 6.056-3.09 11.986-6.429 17.939-9.719 8.671-4.792 17.333-9.603 25.934-14.518.718-.41 1.355-1.698 1.305-2.535-.068-1.135-.723-2.294-1.328-3.324-1.476-2.511-1.437-4.98.255-6.74 1.759-1.829 1.704-2.768.178-4.947-.73-1.13-1.16-2.51-1.75-3.77zm1.05-55.73c.343 2.158-.632 3.286-2.842 3.391-1.368.065-2.746-.118-4.119-.118-6.188.003-12.38.161-18.559-.049-1.364-.046-3.215-1.035-3.912-2.163-1.341-2.17-2.005-4.756-2.973-7.16-2.903-7.211-8.259-11.971-15.761-13.23-10.336-1.734-20.817-1.428-31.313-.858-7.424.403-13.001 6.555-14.47 12.637-.438 1.814-.436 4.107.301 5.765 2.382 5.357 7 8.015 12.607 9.038 1.72.314 3.518.2 5.24.511 13.84 2.499 27.74 1.635 41.6.499 4.209-.345 7.983.508 11.514 2.196 6.328 3.025 11.508 7.666 16.074 12.976 1.331 1.547 2.751 1.449 3.988-.071 5.489-6.745 10.984-13.485 16.561-20.156 2.035-2.434 2.152-3.233-.08-5.574-3.634-3.812-7.268-7.624-10.975-11.364-.509-.514-1.438-.611-2.172-.901-.236.678-.665 1.353-.675 2.034-.07 4.19-.04 8.39-.04 12.59zm-79.25 43.74c6.761.32 12.56 2.116 16.813 6.717 3.321 3.593 7.069 4.054 11.378 3.648 6.086-.574 12.186-1.032 18.256-1.752 3.834-.454 7.254-1.976 9.38-5.451.435-.712.86-1.997.521-2.512-1.189-1.807-2.387-4.085-4.175-4.932-4.925-2.332-10.228-3.567-15.798-3.024-2.883.281-5.78.64-8.668.619-8.318-.061-16.659.629-24.932-1.058-4.023-.82-8.167-1.025-12.228-1.684-5.163-.838-10.294-1.877-15.449-2.77-.75-.13-1.557.069-2.337.115.183.824.114 1.85.588 2.439 3.397 4.215 6.909 8.337 10.373 12.497 1.382 1.66 2.737 1.783 4.557.505.862-.605 1.792-1.262 2.787-1.503 3.1-.77 6.24-1.33 8.94-1.87zm4.41 23.09c.028-.015-.929.351-.895.514.201.983.403 2.109 1.017 2.842 5.04 6.017 10.195 11.938 15.259 17.936 1.29 1.528 2.33 1.464 3.478-.068 1.37-1.829 2.69-3.706 4.178-5.436 3.676-4.275 7.461-8.455 11.128-12.737.474-.553.508-1.483.745-2.239-.848-.065-1.745-.337-2.535-.152-1.764.414-3.466 1.491-5.209 1.527-5.798.121-11.614.094-17.399-.263-3.09-.18-6.12-1.17-9.77-1.92zm-26.44-86.22c-1.198-.427-1.969-.922-2.748-.936-1.894-.033-3.823-.014-5.679.316-1.285.228-2.791.702-3.652 1.593-5.829 6.032-11.525 12.193-17.234 18.341-1.225 1.319-1.158 2.615.091 4.042 2.257 2.579 4.308 5.338 6.554 7.927.634.731 1.65 1.131 2.49 1.682.532-.846 1.357-1.63 1.549-2.547 1.23-5.858 2.945-11.58 6.33-16.525 2.941-4.297 5.506-9.049 10.386-11.698.60-.32.97-1.08 1.91-2.18zm79.49 2.3c.057-2.262-.808-3.202-2.863-3.262-1.25-.036-2.569-.009-2.609 1.758-.036 1.581 2.054 4.662 3.194 4.592 2.11-.13 2.03-1.89 2.28-3.09z" fill="#c6cde0"/>
</svg>
